<svg xmlns="http://www.w3.org/2000/svg" width="7.9" height="16" viewBox="0 0 7.9 16">
  <defs>
    <style>
      .cls-1 {
        fill: #fc6640;
      }
    </style>
  </defs>
  <title>attach</title>
  <g id="Layer_2" data-name="Layer 2">
    <g id="Layer_1-2" data-name="Layer 1">
      <path class="cls-1" d="M4,16c-2.5,0-4-1.7-4-4.5V2.9A3.9,3.9,0,0,1,.6,1.1,2.5,2.5,0,0,1,2.8,0h0A2.8,2.8,0,0,1,5.1,1a3.4,3.4,0,0,1,.6,1.8v8.7a1.9,1.9,0,0,1-.6,1.6,1.7,1.7,0,0,1-1.3.5h0c-1,0-1.6-.8-1.6-2.1V2.9H3.3v8.6c0,1,.4,1,.5,1h.6a1.5,1.5,0,0,0,.2-.9V2.8a1.8,1.8,0,0,0-.3-1.1,1.8,1.8,0,0,0-1.5-.6h0a1.5,1.5,0,0,0-1.3.6,2.1,2.1,0,0,0-.4,1.2v8.6c0,1.3.3,3.4,2.9,3.4s2.8-1.8,2.8-3.4V4.4h1v7.1C7.9,14.4,6.4,16,4,16Z"/>
    </g>
  </g>
</svg>
