<svg xmlns="http://www.w3.org/2000/svg" width="16" height="10" viewBox="0 0 16 10">
  <defs>
    <style>
      .cls-1 {
        fill: #fff;
      }
    </style>
  </defs>
  <title>email-w</title>
  <g id="Layer_2" data-name="Layer 2">
    <g id="Layer_1-2" data-name="Layer 1">
      <path class="cls-1" d="M.8.1H15.5L14.3,1.2,12,3.2,8.8,6.1a1.1,1.1,0,0,1-1.3,0L3.6,2.6,1,.3H.8m0,9.8L5.9,5.7l1,1A1.7,1.7,0,0,0,8.8,7a.9.9,0,0,0,.6-.4l1-.9,5.1,4.2H.8M15.9.7a1.3,1.3,0,0,1,.1.6V8.9a1.3,1.3,0,0,1-.1.6L10.8,5.3,15.9.7M5.2,5.3.1,9.5A4.3,4.3,0,0,0,0,9V1.2A1.1,1.1,0,0,1,.1.7L5.2,5.3"/>
    </g>
  </g>
</svg>
