<svg xmlns="http://www.w3.org/2000/svg" xmlns:xlink="http://www.w3.org/1999/xlink" width="16" height="16" viewBox="0 0 16 16">
  <defs>
    <style>
      .cls-1 {
        fill: #fff;
      }

      .cls-1, .cls-3 {
        fill-rule: evenodd;
      }

      .cls-2 {
        mask: url(#mask);
      }

      .cls-3 {
        fill: #abb0b4;
      }
    </style>
    <mask id="mask" x="0" y="0" width="16" height="16" maskUnits="userSpaceOnUse">
      <g id="d">
        <path id="c" class="cls-1" d="M14.8,8,8.5,1.2a.5.5,0,0,0-.8,0h0L1.2,8.1c-.2.1-.2.4-.2.6a.7.7,0,0,0,.6.3H3.3v5a.9.9,0,0,0,1,1H5.4a.7.7,0,0,0,.7-.7h0V11.9a.7.7,0,0,1,.7-.7H9.1a.7.7,0,0,1,.7.7v2.4a.7.7,0,0,0,.7.7h1.2a1,1,0,0,0,1-1V9h1.7a.6.6,0,0,0,.6-.5.8.8,0,0,0-.2-.5Z"/>
      </g>
    </mask>
  </defs>
  <title>home</title>
  <g id="Layer_2" data-name="Layer 2">
    <g id="Layer_1-2" data-name="Layer 1">
      <g class="cls-2">
        <path class="cls-3" d="M0,0H16V16H0Z"/>
      </g>
    </g>
  </g>
</svg>
